<?xml version="1.0" encoding="utf-8" standalone="no"?>
<!DOCTYPE svg PUBLIC "-//W3C//DTD SVG 1.1//EN"
  "http://www.w3.org/Graphics/SVG/1.1/DTD/svg11.dtd">
<svg xmlns:xlink="http://www.w3.org/1999/xlink" width="328.383508pt" height="192.235203pt" viewBox="0 0 328.383508 192.235203" xmlns="http://www.w3.org/2000/svg" version="1.1">
 <metadata>
  <rdf:RDF xmlns:dc="http://purl.org/dc/elements/1.1/" xmlns:cc="http://creativecommons.org/ns#" xmlns:rdf="http://www.w3.org/1999/02/22-rdf-syntax-ns#">
   <cc:Work>
    <dc:type rdf:resource="http://purl.org/dc/dcmitype/StillImage"/>
    <dc:format>image/svg+xml</dc:format>
   </cc:Work>
  </rdf:RDF>
 </metadata>
 <defs>
  <style type="text/css">*{stroke-linejoin: round; stroke-linecap: butt}</style>
 </defs>
 <g id="figure_1">
  <g id="patch_1">
   <path d="M 0 192.235203 
L 328.383508 192.235203 
L 328.383508 0 
L 0 0 
z
" style="fill: #ffffff"/>
  </g>
  <g id="axes_1">
   <g id="patch_2">
    <path d="M 31.095508 163.447781 
L 293.355508 163.447781 
L 293.355508 30.391781 
L 31.095508 30.391781 
z
" style="fill: #ffffff"/>
   </g>
   <g id="matplotlib.axis_1">
    <g id="xtick_1">
     <g id="line2d_1">
      <path d="M 31.095508 163.447781 
L 31.095508 30.391781 
" clip-path="url(#p14ff59b45b)" style="fill: none; stroke: #e4e7eb; stroke-width: 0.5; stroke-linecap: round"/>
     </g>
     <g id="line2d_2"/>
     <g id="text_1">
      <text style="font-size: 7px; font-family: 'Inter'; text-anchor: middle; fill: #4b5563" x="31.095508" y="174.229031" transform="rotate(-0 31.095508 174.229031)">0.0</text>
     </g>
    </g>
    <g id="xtick_2">
     <g id="line2d_3">
      <path d="M 74.805508 163.447781 
L 74.805508 30.391781 
" clip-path="url(#p14ff59b45b)" style="fill: none; stroke: #e4e7eb; stroke-width: 0.5; stroke-linecap: round"/>
     </g>
     <g id="line2d_4"/>
     <g id="text_2">
      <text style="font-size: 7px; font-family: 'Inter'; text-anchor: middle; fill: #4b5563" x="74.805508" y="174.229031" transform="rotate(-0 74.805508 174.229031)">0.1</text>
     </g>
    </g>
    <g id="xtick_3">
     <g id="line2d_5">
      <path d="M 118.515508 163.447781 
L 118.515508 30.391781 
" clip-path="url(#p14ff59b45b)" style="fill: none; stroke: #e4e7eb; stroke-width: 0.5; stroke-linecap: round"/>
     </g>
     <g id="line2d_6"/>
     <g id="text_3">
      <text style="font-size: 7px; font-family: 'Inter'; text-anchor: middle; fill: #4b5563" x="118.515508" y="174.229031" transform="rotate(-0 118.515508 174.229031)">0.2</text>
     </g>
    </g>
    <g id="xtick_4">
     <g id="line2d_7">
      <path d="M 162.225508 163.447781 
L 162.225508 30.391781 
" clip-path="url(#p14ff59b45b)" style="fill: none; stroke: #e4e7eb; stroke-width: 0.5; stroke-linecap: round"/>
     </g>
     <g id="line2d_8"/>
     <g id="text_4">
      <text style="font-size: 7px; font-family: 'Inter'; text-anchor: middle; fill: #4b5563" x="162.225508" y="174.229031" transform="rotate(-0 162.225508 174.229031)">0.3</text>
     </g>
    </g>
    <g id="xtick_5">
     <g id="line2d_9">
      <path d="M 205.935508 163.447781 
L 205.935508 30.391781 
" clip-path="url(#p14ff59b45b)" style="fill: none; stroke: #e4e7eb; stroke-width: 0.5; stroke-linecap: round"/>
     </g>
     <g id="line2d_10"/>
     <g id="text_5">
      <text style="font-size: 7px; font-family: 'Inter'; text-anchor: middle; fill: #4b5563" x="205.935508" y="174.229031" transform="rotate(-0 205.935508 174.229031)">0.4</text>
     </g>
    </g>
    <g id="xtick_6">
     <g id="line2d_11">
      <path d="M 249.645508 163.447781 
L 249.645508 30.391781 
" clip-path="url(#p14ff59b45b)" style="fill: none; stroke: #e4e7eb; stroke-width: 0.5; stroke-linecap: round"/>
     </g>
     <g id="line2d_12"/>
     <g id="text_6">
      <text style="font-size: 7px; font-family: 'Inter'; text-anchor: middle; fill: #4b5563" x="249.645508" y="174.229031" transform="rotate(-0 249.645508 174.229031)">0.5</text>
     </g>
    </g>
    <g id="xtick_7">
     <g id="line2d_13">
      <path d="M 293.355508 163.447781 
L 293.355508 30.391781 
" clip-path="url(#p14ff59b45b)" style="fill: none; stroke: #e4e7eb; stroke-width: 0.5; stroke-linecap: round"/>
     </g>
     <g id="line2d_14"/>
     <g id="text_7">
      <text style="font-size: 7px; font-family: 'Inter'; text-anchor: middle; fill: #4b5563" x="293.355508" y="174.229031" transform="rotate(-0 293.355508 174.229031)">0.6</text>
     </g>
    </g>
    <g id="text_8">
     <text style="font-size: 7.8px; font-family: 'Inter'; text-anchor: middle; fill: #4b5563" x="162.225508" y="187.473758" transform="rotate(-0 162.225508 187.473758)">Predicted P(attack)</text>
    </g>
   </g>
   <g id="matplotlib.axis_2">
    <g id="ytick_1">
     <g id="line2d_15">
      <path d="M 31.095508 163.447781 
L 293.355508 163.447781 
" clip-path="url(#p14ff59b45b)" style="fill: none; stroke: #e4e7eb; stroke-width: 0.5; stroke-linecap: round"/>
     </g>
     <g id="line2d_16"/>
     <g id="text_9">
      <text style="font-size: 7px; font-family: 'Inter'; text-anchor: end; fill: #4b5563" x="27.095508" y="166.838406" transform="rotate(-0 27.095508 166.838406)">0.0</text>
     </g>
    </g>
    <g id="ytick_2">
     <g id="line2d_17">
      <path d="M 31.095508 141.271781 
L 293.355508 141.271781 
" clip-path="url(#p14ff59b45b)" style="fill: none; stroke: #e4e7eb; stroke-width: 0.5; stroke-linecap: round"/>
     </g>
     <g id="line2d_18"/>
     <g id="text_10">
      <text style="font-size: 7px; font-family: 'Inter'; text-anchor: end; fill: #4b5563" x="27.095508" y="144.662406" transform="rotate(-0 27.095508 144.662406)">0.1</text>
     </g>
    </g>
    <g id="ytick_3">
     <g id="line2d_19">
      <path d="M 31.095508 119.095781 
L 293.355508 119.095781 
" clip-path="url(#p14ff59b45b)" style="fill: none; stroke: #e4e7eb; stroke-width: 0.5; stroke-linecap: round"/>
     </g>
     <g id="line2d_20"/>
     <g id="text_11">
      <text style="font-size: 7px; font-family: 'Inter'; text-anchor: end; fill: #4b5563" x="27.095508" y="122.486406" transform="rotate(-0 27.095508 122.486406)">0.2</text>
     </g>
    </g>
    <g id="ytick_4">
     <g id="line2d_21">
      <path d="M 31.095508 96.919781 
L 293.355508 96.919781 
" clip-path="url(#p14ff59b45b)" style="fill: none; stroke: #e4e7eb; stroke-width: 0.5; stroke-linecap: round"/>
     </g>
     <g id="line2d_22"/>
     <g id="text_12">
      <text style="font-size: 7px; font-family: 'Inter'; text-anchor: end; fill: #4b5563" x="27.095508" y="100.310406" transform="rotate(-0 27.095508 100.310406)">0.3</text>
     </g>
    </g>
    <g id="ytick_5">
     <g id="line2d_23">
      <path d="M 31.095508 74.743781 
L 293.355508 74.743781 
" clip-path="url(#p14ff59b45b)" style="fill: none; stroke: #e4e7eb; stroke-width: 0.5; stroke-linecap: round"/>
     </g>
     <g id="line2d_24"/>
     <g id="text_13">
      <text style="font-size: 7px; font-family: 'Inter'; text-anchor: end; fill: #4b5563" x="27.095508" y="78.134406" transform="rotate(-0 27.095508 78.134406)">0.4</text>
     </g>
    </g>
    <g id="ytick_6">
     <g id="line2d_25">
      <path d="M 31.095508 52.567781 
L 293.355508 52.567781 
" clip-path="url(#p14ff59b45b)" style="fill: none; stroke: #e4e7eb; stroke-width: 0.5; stroke-linecap: round"/>
     </g>
     <g id="line2d_26"/>
     <g id="text_14">
      <text style="font-size: 7px; font-family: 'Inter'; text-anchor: end; fill: #4b5563" x="27.095508" y="55.958406" transform="rotate(-0 27.095508 55.958406)">0.5</text>
     </g>
    </g>
    <g id="ytick_7">
     <g id="line2d_27">
      <path d="M 31.095508 30.391781 
L 293.355508 30.391781 
" clip-path="url(#p14ff59b45b)" style="fill: none; stroke: #e4e7eb; stroke-width: 0.5; stroke-linecap: round"/>
     </g>
     <g id="line2d_28"/>
     <g id="text_15">
      <text style="font-size: 7px; font-family: 'Inter'; text-anchor: end; fill: #4b5563" x="27.095508" y="33.782406" transform="rotate(-0 27.095508 33.782406)">0.6</text>
     </g>
    </g>
    <g id="text_16">
     <text style="font-size: 7.8px; font-family: 'Inter'; text-anchor: middle; fill: #4b5563" x="10.43625" y="96.919781" transform="rotate(-90 10.43625 96.919781)">Share that were attacks</text>
    </g>
   </g>
   <g id="line2d_29">
    <path d="M 31.095508 163.447781 
L 293.355508 30.391781 
" clip-path="url(#p14ff59b45b)" style="fill: none; stroke-dasharray: 2.4,1.6; stroke-dashoffset: 0; stroke: #8a919c; stroke-width: 0.8"/>
   </g>
   <g id="line2d_30">
    <path d="M 33.281008 157.324231 
L 39.837508 156.132781 
L 48.579508 151.24827 
L 57.321508 149.991471 
L 66.063508 146.562502 
L 78.981987 140.226839 
L 118.019742 126.138443 
" clip-path="url(#p14ff59b45b)" style="fill: none; stroke: #e07a1f; stroke-width: 1.6; stroke-linecap: round"/>
    <defs>
     <path id="mba836dbdf7" d="M 0 1.75 
C 0.464105 1.75 0.909265 1.565609 1.237437 1.237437 
C 1.565609 0.909265 1.75 0.464105 1.75 0 
C 1.75 -0.464105 1.565609 -0.909265 1.237437 -1.237437 
C 0.909265 -1.565609 0.464105 -1.75 0 -1.75 
C -0.464105 -1.75 -0.909265 -1.565609 -1.237437 -1.237437 
C -1.565609 -0.909265 -1.75 -0.464105 -1.75 0 
C -1.75 0.464105 -1.565609 0.909265 -1.237437 1.237437 
C -0.909265 1.565609 -0.464105 1.75 0 1.75 
z
" style="stroke: #ffffff; stroke-width: 0.6"/>
    </defs>
    <g clip-path="url(#p14ff59b45b)">
     <use xlink:href="#mba836dbdf7" x="33.281008" y="157.324231" style="fill: #e07a1f; stroke: #ffffff; stroke-width: 0.6"/>
     <use xlink:href="#mba836dbdf7" x="39.837508" y="156.132781" style="fill: #e07a1f; stroke: #ffffff; stroke-width: 0.6"/>
     <use xlink:href="#mba836dbdf7" x="48.579508" y="151.24827" style="fill: #e07a1f; stroke: #ffffff; stroke-width: 0.6"/>
     <use xlink:href="#mba836dbdf7" x="57.321508" y="149.991471" style="fill: #e07a1f; stroke: #ffffff; stroke-width: 0.6"/>
     <use xlink:href="#mba836dbdf7" x="66.063508" y="146.562502" style="fill: #e07a1f; stroke: #ffffff; stroke-width: 0.6"/>
     <use xlink:href="#mba836dbdf7" x="78.981987" y="140.226839" style="fill: #e07a1f; stroke: #ffffff; stroke-width: 0.6"/>
     <use xlink:href="#mba836dbdf7" x="118.019742" y="126.138443" style="fill: #e07a1f; stroke: #ffffff; stroke-width: 0.6"/>
    </g>
   </g>
   <g id="line2d_31">
    <path d="M 31.609418 163.004261 
L 32.753735 162.117221 
L 34.542975 161.230181 
L 37.341415 159.012581 
L 42.232126 157.238501 
L 51.562138 153.690341 
L 76.097479 141.271781 
L 201.53545 76.074341 
" clip-path="url(#p14ff59b45b)" style="fill: none; stroke: #2f6db5; stroke-width: 1.6; stroke-linecap: round"/>
    <defs>
     <path id="m2a3a30f679" d="M 0 1.75 
C 0.464105 1.75 0.909265 1.565609 1.237437 1.237437 
C 1.565609 0.909265 1.75 0.464105 1.75 0 
C 1.75 -0.464105 1.565609 -0.909265 1.237437 -1.237437 
C 0.909265 -1.565609 0.464105 -1.75 0 -1.75 
C -0.464105 -1.75 -0.909265 -1.565609 -1.237437 -1.237437 
C -1.565609 -0.909265 -1.75 -0.464105 -1.75 0 
C -1.75 0.464105 -1.565609 0.909265 -1.237437 1.237437 
C -0.909265 1.565609 -0.464105 1.75 0 1.75 
z
" style="stroke: #ffffff; stroke-width: 0.6"/>
    </defs>
    <g clip-path="url(#p14ff59b45b)">
     <use xlink:href="#m2a3a30f679" x="31.609418" y="163.004261" style="fill: #2f6db5; stroke: #ffffff; stroke-width: 0.6"/>
     <use xlink:href="#m2a3a30f679" x="32.753735" y="162.117221" style="fill: #2f6db5; stroke: #ffffff; stroke-width: 0.6"/>
     <use xlink:href="#m2a3a30f679" x="34.542975" y="161.230181" style="fill: #2f6db5; stroke: #ffffff; stroke-width: 0.6"/>
     <use xlink:href="#m2a3a30f679" x="37.341415" y="159.012581" style="fill: #2f6db5; stroke: #ffffff; stroke-width: 0.6"/>
     <use xlink:href="#m2a3a30f679" x="42.232126" y="157.238501" style="fill: #2f6db5; stroke: #ffffff; stroke-width: 0.6"/>
     <use xlink:href="#m2a3a30f679" x="51.562138" y="153.690341" style="fill: #2f6db5; stroke: #ffffff; stroke-width: 0.6"/>
     <use xlink:href="#m2a3a30f679" x="76.097479" y="141.271781" style="fill: #2f6db5; stroke: #ffffff; stroke-width: 0.6"/>
     <use xlink:href="#m2a3a30f679" x="201.53545" y="76.074341" style="fill: #2f6db5; stroke: #ffffff; stroke-width: 0.6"/>
    </g>
   </g>
   <g id="patch_3">
    <path d="M 31.095508 163.447781 
L 31.095508 30.391781 
" style="fill: none; stroke: #c9ced6; stroke-width: 0.6; stroke-linejoin: miter; stroke-linecap: square"/>
   </g>
   <g id="patch_4">
    <path d="M 31.095508 163.447781 
L 293.355508 163.447781 
" style="fill: none; stroke: #c9ced6; stroke-width: 0.6; stroke-linejoin: miter; stroke-linecap: square"/>
   </g>
   <g id="legend_1">
    <g id="line2d_32">
     <path d="M 36.675508 39.808031 
L 41.015508 39.808031 
L 45.355508 39.808031 
" style="fill: none; stroke: #e07a1f; stroke-width: 1.6; stroke-linecap: round"/>
     <g>
      <use xlink:href="#mba836dbdf7" x="41.015508" y="39.808031" style="fill: #e07a1f; stroke: #ffffff; stroke-width: 0.6"/>
     </g>
    </g>
    <g id="text_17">
     <text style="font-size: 6.2px; font-family: 'Inter'; text-anchor: start; fill: #1f2430" x="50.315508" y="41.978031" transform="rotate(-0 50.315508 41.978031)">50 nearest alerts by text meaning  (AUC 0.68)</text>
    </g>
    <g id="line2d_33">
     <path d="M 36.675508 50.409789 
L 41.015508 50.409789 
L 45.355508 50.409789 
" style="fill: none; stroke: #2f6db5; stroke-width: 1.6; stroke-linecap: round"/>
     <g>
      <use xlink:href="#m2a3a30f679" x="41.015508" y="50.409789" style="fill: #2f6db5; stroke: #ffffff; stroke-width: 0.6"/>
     </g>
    </g>
    <g id="text_18">
     <text style="font-size: 6.2px; font-family: 'Inter'; text-anchor: start; fill: #1f2430" x="50.315508" y="52.579789" transform="rotate(-0 50.315508 52.579789)">logistic regression on structured fields  (AUC 0.89)</text>
    </g>
   </g>
  </g>
  <g id="text_19">
   <g id="patch_5">
    <path d="M 227.952383 11.055781 
L 326.063508 11.055781 
Q 326.903508 11.055781 326.903508 10.215781 
L 326.903508 2.32 
Q 326.903508 1.48 326.063508 1.48 
L 227.952383 1.48 
Q 227.112383 1.48 227.112383 2.32 
L 227.112383 10.215781 
Q 227.112383 11.055781 227.952383 11.055781 
z
" style="fill: #ffffff; stroke: #e4e7eb; stroke-width: 0.5; stroke-linejoin: miter"/>
   </g>
   <text style="font-weight: 500; font-size: 5.6px; font-family: 'Inter'; text-anchor: end; fill: #8a919c" x="325.503508" y="8.305" transform="rotate(-0 325.503508 8.305)">SYNTHETIC DATA · Kestrel Logistics</text>
  </g>
 </g>
 <defs>
  <clipPath id="p14ff59b45b">
   <rect x="31.095508" y="30.391781" width="262.26" height="133.056"/>
  </clipPath>
 </defs>
</svg>
