<?xml version="1.0" encoding="utf-8" standalone="no"?>
<!DOCTYPE svg PUBLIC "-//W3C//DTD SVG 1.1//EN"
  "http://www.w3.org/Graphics/SVG/1.1/DTD/svg11.dtd">
<svg xmlns:xlink="http://www.w3.org/1999/xlink" width="311.02875pt" height="153.635422pt" viewBox="0 0 311.02875 153.635422" xmlns="http://www.w3.org/2000/svg" version="1.1">
 <metadata>
  <rdf:RDF xmlns:dc="http://purl.org/dc/elements/1.1/" xmlns:cc="http://creativecommons.org/ns#" xmlns:rdf="http://www.w3.org/1999/02/22-rdf-syntax-ns#">
   <cc:Work>
    <dc:type rdf:resource="http://purl.org/dc/dcmitype/StillImage"/>
    <dc:format>image/svg+xml</dc:format>
   </cc:Work>
  </rdf:RDF>
 </metadata>
 <defs>
  <style type="text/css">*{stroke-linejoin: round; stroke-linecap: butt}</style>
 </defs>
 <g id="figure_1">
  <g id="patch_1">
   <path d="M 0 153.635422 
L 311.02875 153.635422 
L 311.02875 0 
L 0 0 
z
" style="fill: #ffffff"/>
  </g>
  <g id="axes_1">
   <g id="patch_2">
    <path d="M 45.88875 124.848 
L 308.14875 124.848 
L 308.14875 2.88 
L 45.88875 2.88 
z
" style="fill: #ffffff"/>
   </g>
   <g id="matplotlib.axis_1">
    <g id="xtick_1">
     <g id="line2d_1"/>
     <g id="text_1">
      <text style="font-size: 7px; font-family: 'Inter'; text-anchor: middle; fill: #4b5563" x="57.809659" y="135.62925" transform="rotate(-0 57.809659 135.62925)">1</text>
     </g>
    </g>
    <g id="xtick_2">
     <g id="line2d_2"/>
     <g id="text_2">
      <text style="font-size: 7px; font-family: 'Inter'; text-anchor: middle; fill: #4b5563" x="117.414205" y="135.62925" transform="rotate(-0 117.414205 135.62925)">2</text>
     </g>
    </g>
    <g id="xtick_3">
     <g id="line2d_3"/>
     <g id="text_3">
      <text style="font-size: 7px; font-family: 'Inter'; text-anchor: middle; fill: #4b5563" x="177.01875" y="135.62925" transform="rotate(-0 177.01875 135.62925)">3</text>
     </g>
    </g>
    <g id="xtick_4">
     <g id="line2d_4"/>
     <g id="text_4">
      <text style="font-size: 7px; font-family: 'Inter'; text-anchor: middle; fill: #4b5563" x="236.623295" y="135.62925" transform="rotate(-0 236.623295 135.62925)">4</text>
     </g>
    </g>
    <g id="xtick_5">
     <g id="line2d_5"/>
     <g id="text_5">
      <text style="font-size: 7px; font-family: 'Inter'; text-anchor: middle; fill: #4b5563" x="296.227841" y="135.62925" transform="rotate(-0 296.227841 135.62925)">5</text>
     </g>
    </g>
    <g id="text_6">
     <text style="font-size: 7.8px; font-family: 'Inter'; text-anchor: middle; fill: #4b5563" x="177.01875" y="148.873977" transform="rotate(-0 177.01875 148.873977)">chunks retrieved (k)</text>
    </g>
   </g>
   <g id="matplotlib.axis_2">
    <g id="ytick_1">
     <g id="line2d_6">
      <path d="M 45.88875 124.848 
L 308.14875 124.848 
" clip-path="url(#p163da338b3)" style="fill: none; stroke: #e4e7eb; stroke-width: 0.5; stroke-linecap: round"/>
     </g>
     <g id="line2d_7"/>
     <g id="text_7">
      <text style="font-size: 7px; font-family: 'Inter'; text-anchor: end; fill: #4b5563" x="41.88875" y="128.238625" transform="rotate(-0 41.88875 128.238625)">50%</text>
     </g>
    </g>
    <g id="ytick_2">
     <g id="line2d_8">
      <path d="M 45.88875 101.392615 
L 308.14875 101.392615 
" clip-path="url(#p163da338b3)" style="fill: none; stroke: #e4e7eb; stroke-width: 0.5; stroke-linecap: round"/>
     </g>
     <g id="line2d_9"/>
     <g id="text_8">
      <text style="font-size: 7px; font-family: 'Inter'; text-anchor: end; fill: #4b5563" x="41.88875" y="104.78324" transform="rotate(-0 41.88875 104.78324)">60%</text>
     </g>
    </g>
    <g id="ytick_3">
     <g id="line2d_10">
      <path d="M 45.88875 77.937231 
L 308.14875 77.937231 
" clip-path="url(#p163da338b3)" style="fill: none; stroke: #e4e7eb; stroke-width: 0.5; stroke-linecap: round"/>
     </g>
     <g id="line2d_11"/>
     <g id="text_9">
      <text style="font-size: 7px; font-family: 'Inter'; text-anchor: end; fill: #4b5563" x="41.88875" y="81.327856" transform="rotate(-0 41.88875 81.327856)">70%</text>
     </g>
    </g>
    <g id="ytick_4">
     <g id="line2d_12">
      <path d="M 45.88875 54.481846 
L 308.14875 54.481846 
" clip-path="url(#p163da338b3)" style="fill: none; stroke: #e4e7eb; stroke-width: 0.5; stroke-linecap: round"/>
     </g>
     <g id="line2d_13"/>
     <g id="text_10">
      <text style="font-size: 7px; font-family: 'Inter'; text-anchor: end; fill: #4b5563" x="41.88875" y="57.872471" transform="rotate(-0 41.88875 57.872471)">80%</text>
     </g>
    </g>
    <g id="ytick_5">
     <g id="line2d_14">
      <path d="M 45.88875 31.026462 
L 308.14875 31.026462 
" clip-path="url(#p163da338b3)" style="fill: none; stroke: #e4e7eb; stroke-width: 0.5; stroke-linecap: round"/>
     </g>
     <g id="line2d_15"/>
     <g id="text_11">
      <text style="font-size: 7px; font-family: 'Inter'; text-anchor: end; fill: #4b5563" x="41.88875" y="34.417087" transform="rotate(-0 41.88875 34.417087)">90%</text>
     </g>
    </g>
    <g id="ytick_6">
     <g id="line2d_16">
      <path d="M 45.88875 7.571077 
L 308.14875 7.571077 
" clip-path="url(#p163da338b3)" style="fill: none; stroke: #e4e7eb; stroke-width: 0.5; stroke-linecap: round"/>
     </g>
     <g id="line2d_17"/>
     <g id="text_12">
      <text style="font-size: 7px; font-family: 'Inter'; text-anchor: end; fill: #4b5563" x="41.88875" y="10.961702" transform="rotate(-0 41.88875 10.961702)">100%</text>
     </g>
    </g>
    <g id="text_13">
     <text style="font-size: 6.8px; font-family: 'Inter'; fill: #4b5563" transform="translate(9.4675 103.727406) rotate(-90)">questions whose answer</text>
     <text style="font-size: 6.8px; font-family: 'Inter'; fill: #4b5563" transform="translate(17.695234 89.179125) rotate(-90)">was in the top k</text>
    </g>
   </g>
   <g id="line2d_18">
    <path d="M 57.809659 95.528769 
L 117.414205 51.549923 
L 177.01875 36.890308 
L 236.623295 36.890308 
L 296.227841 36.890308 
" clip-path="url(#p163da338b3)" style="fill: none; stroke: #2f6db5; stroke-width: 1.7; stroke-linecap: round"/>
    <defs>
     <path id="mdb1d0694f5" d="M 0 2 
C 0.530406 2 1.03916 1.789267 1.414214 1.414214 
C 1.789267 1.03916 2 0.530406 2 0 
C 2 -0.530406 1.789267 -1.03916 1.414214 -1.414214 
C 1.03916 -1.789267 0.530406 -2 0 -2 
C -0.530406 -2 -1.03916 -1.789267 -1.414214 -1.414214 
C -1.789267 -1.03916 -2 -0.530406 -2 0 
C -2 0.530406 -1.789267 1.03916 -1.414214 1.414214 
C -1.03916 1.789267 -0.530406 2 0 2 
z
" style="stroke: #ffffff; stroke-width: 0.7"/>
    </defs>
    <g clip-path="url(#p163da338b3)">
     <use xlink:href="#mdb1d0694f5" x="57.809659" y="95.528769" style="fill: #2f6db5; stroke: #ffffff; stroke-width: 0.7"/>
     <use xlink:href="#mdb1d0694f5" x="117.414205" y="51.549923" style="fill: #2f6db5; stroke: #ffffff; stroke-width: 0.7"/>
     <use xlink:href="#mdb1d0694f5" x="177.01875" y="36.890308" style="fill: #2f6db5; stroke: #ffffff; stroke-width: 0.7"/>
     <use xlink:href="#mdb1d0694f5" x="236.623295" y="36.890308" style="fill: #2f6db5; stroke: #ffffff; stroke-width: 0.7"/>
     <use xlink:href="#mdb1d0694f5" x="296.227841" y="36.890308" style="fill: #2f6db5; stroke: #ffffff; stroke-width: 0.7"/>
    </g>
   </g>
   <g id="line2d_19">
    <path d="M 57.809659 51.549923 
L 117.414205 29.5605 
L 177.01875 22.230692 
L 236.623295 22.230692 
L 296.227841 22.230692 
" clip-path="url(#p163da338b3)" style="fill: none; stroke-dasharray: 8.5,3.4; stroke-dashoffset: 0; stroke: #5b6b82; stroke-width: 1.7"/>
    <defs>
     <path id="m3a0e4e26ee" d="M 0 2 
C 0.530406 2 1.03916 1.789267 1.414214 1.414214 
C 1.789267 1.03916 2 0.530406 2 0 
C 2 -0.530406 1.789267 -1.03916 1.414214 -1.414214 
C 1.03916 -1.789267 0.530406 -2 0 -2 
C -0.530406 -2 -1.03916 -1.789267 -1.414214 -1.414214 
C -1.789267 -1.03916 -2 -0.530406 -2 0 
C -2 0.530406 -1.789267 1.03916 -1.414214 1.414214 
C -1.03916 1.789267 -0.530406 2 0 2 
z
" style="stroke: #ffffff; stroke-width: 0.7"/>
    </defs>
    <g clip-path="url(#p163da338b3)">
     <use xlink:href="#m3a0e4e26ee" x="57.809659" y="51.549923" style="fill: #5b6b82; stroke: #ffffff; stroke-width: 0.7"/>
     <use xlink:href="#m3a0e4e26ee" x="117.414205" y="29.5605" style="fill: #5b6b82; stroke: #ffffff; stroke-width: 0.7"/>
     <use xlink:href="#m3a0e4e26ee" x="177.01875" y="22.230692" style="fill: #5b6b82; stroke: #ffffff; stroke-width: 0.7"/>
     <use xlink:href="#m3a0e4e26ee" x="236.623295" y="22.230692" style="fill: #5b6b82; stroke: #ffffff; stroke-width: 0.7"/>
     <use xlink:href="#m3a0e4e26ee" x="296.227841" y="22.230692" style="fill: #5b6b82; stroke: #ffffff; stroke-width: 0.7"/>
    </g>
   </g>
   <g id="line2d_20">
    <path d="M 57.809659 73.539346 
L 117.414205 44.220115 
L 177.01875 29.5605 
L 236.623295 29.5605 
L 296.227841 22.230692 
" clip-path="url(#p163da338b3)" style="fill: none; stroke-dasharray: 1.7,2.72; stroke-dashoffset: 0; stroke: #3b9c6e; stroke-width: 1.7"/>
    <defs>
     <path id="m7ee90f177d" d="M 0 2 
C 0.530406 2 1.03916 1.789267 1.414214 1.414214 
C 1.789267 1.03916 2 0.530406 2 0 
C 2 -0.530406 1.789267 -1.03916 1.414214 -1.414214 
C 1.03916 -1.789267 0.530406 -2 0 -2 
C -0.530406 -2 -1.03916 -1.789267 -1.414214 -1.414214 
C -1.789267 -1.03916 -2 -0.530406 -2 0 
C -2 0.530406 -1.789267 1.03916 -1.414214 1.414214 
C -1.03916 1.789267 -0.530406 2 0 2 
z
" style="stroke: #ffffff; stroke-width: 0.7"/>
    </defs>
    <g clip-path="url(#p163da338b3)">
     <use xlink:href="#m7ee90f177d" x="57.809659" y="73.539346" style="fill: #3b9c6e; stroke: #ffffff; stroke-width: 0.7"/>
     <use xlink:href="#m7ee90f177d" x="117.414205" y="44.220115" style="fill: #3b9c6e; stroke: #ffffff; stroke-width: 0.7"/>
     <use xlink:href="#m7ee90f177d" x="177.01875" y="29.5605" style="fill: #3b9c6e; stroke: #ffffff; stroke-width: 0.7"/>
     <use xlink:href="#m7ee90f177d" x="236.623295" y="29.5605" style="fill: #3b9c6e; stroke: #ffffff; stroke-width: 0.7"/>
     <use xlink:href="#m7ee90f177d" x="296.227841" y="22.230692" style="fill: #3b9c6e; stroke: #ffffff; stroke-width: 0.7"/>
    </g>
   </g>
   <g id="patch_3">
    <path d="M 45.88875 124.848 
L 308.14875 124.848 
" style="fill: none; stroke: #9aa1ab; stroke-width: 0.6; stroke-linejoin: miter; stroke-linecap: square"/>
   </g>
   <g id="legend_1">
    <g id="line2d_21">
     <path d="M 237.67875 93.41675 
L 242.15875 93.41675 
L 246.63875 93.41675 
" style="fill: none; stroke: #2f6db5; stroke-width: 1.7; stroke-linecap: round"/>
     <g>
      <use xlink:href="#mdb1d0694f5" x="242.15875" y="93.41675" style="fill: #2f6db5; stroke: #ffffff; stroke-width: 0.7"/>
     </g>
    </g>
    <g id="text_14">
     <text style="font-size: 6.4px; font-family: 'Inter'; text-anchor: start" x="251.75875" y="95.65675" transform="rotate(-0 251.75875 95.65675)">whole words</text>
    </g>
    <g id="line2d_22">
     <path d="M 237.67875 104.3605 
L 242.15875 104.3605 
L 246.63875 104.3605 
" style="fill: none; stroke-dasharray: 8.5,3.4; stroke-dashoffset: 0; stroke: #5b6b82; stroke-width: 1.7"/>
     <g>
      <use xlink:href="#m3a0e4e26ee" x="242.15875" y="104.3605" style="fill: #5b6b82; stroke: #ffffff; stroke-width: 0.7"/>
     </g>
    </g>
    <g id="text_15">
     <text style="font-size: 6.4px; font-family: 'Inter'; text-anchor: start" x="251.75875" y="106.6005" transform="rotate(-0 251.75875 106.6005)">character pieces</text>
    </g>
    <g id="line2d_23">
     <path d="M 237.67875 115.30425 
L 242.15875 115.30425 
L 246.63875 115.30425 
" style="fill: none; stroke-dasharray: 1.7,2.72; stroke-dashoffset: 0; stroke: #3b9c6e; stroke-width: 1.7"/>
     <g>
      <use xlink:href="#m7ee90f177d" x="242.15875" y="115.30425" style="fill: #3b9c6e; stroke: #ffffff; stroke-width: 0.7"/>
     </g>
    </g>
    <g id="text_16">
     <text style="font-size: 6.4px; font-family: 'Inter'; text-anchor: start" x="251.75875" y="117.54425" transform="rotate(-0 251.75875 117.54425)">both combined</text>
    </g>
   </g>
  </g>
 </g>
 <defs>
  <clipPath id="p163da338b3">
   <rect x="45.88875" y="2.88" width="262.26" height="121.968"/>
  </clipPath>
 </defs>
</svg>
